<mxfile host="app.diagrams.net" modified="2022-07-13T06:54:23.144Z" agent="5.0 (Windows NT 10.0; Win64; x64) AppleWebKit/537.36 (KHTML, like Gecko) Chrome/103.0.0.0 Safari/537.36" etag="BIw6SbnLTBBzBKQ0dDSW" version="20.1.1" type="github">
  <diagram id="0KUYb1uL1_AdaToYJsVX" name="Page-1">
    <mxGraphModel dx="1128" dy="597" grid="1" gridSize="10" guides="1" tooltips="1" connect="1" arrows="1" fold="1" page="1" pageScale="1" pageWidth="827" pageHeight="1169" math="0" shadow="0">
      <root>
        <mxCell id="0" />
        <mxCell id="1" parent="0" />
        <mxCell id="0VVeaCW9og5QifVoDG6b-14" style="edgeStyle=orthogonalEdgeStyle;rounded=0;orthogonalLoop=1;jettySize=auto;html=1;exitX=0.75;exitY=0;exitDx=0;exitDy=0;entryX=0.416;entryY=0.991;entryDx=0;entryDy=0;entryPerimeter=0;fontFamily=Times New Roman;" edge="1" parent="1" source="0VVeaCW9og5QifVoDG6b-1">
          <mxGeometry relative="1" as="geometry">
            <mxPoint x="289.9200000000001" y="555.64" as="targetPoint" />
          </mxGeometry>
        </mxCell>
        <mxCell id="0VVeaCW9og5QifVoDG6b-1" value="数据交割" style="rounded=0;whiteSpace=wrap;html=1;fontFamily=Times New Roman;fillColor=#d5e8d4;strokeColor=#82b366;" vertex="1" parent="1">
          <mxGeometry x="200" y="566" width="120" height="35" as="geometry" />
        </mxCell>
        <mxCell id="0VVeaCW9og5QifVoDG6b-13" style="edgeStyle=orthogonalEdgeStyle;rounded=0;orthogonalLoop=1;jettySize=auto;html=1;exitX=1;exitY=0.5;exitDx=0;exitDy=0;entryX=0;entryY=0.5;entryDx=0;entryDy=0;fontFamily=Times New Roman;" edge="1" parent="1" source="0VVeaCW9og5QifVoDG6b-2" target="0VVeaCW9og5QifVoDG6b-1">
          <mxGeometry relative="1" as="geometry" />
        </mxCell>
        <mxCell id="0VVeaCW9og5QifVoDG6b-2" value="开始实施" style="ellipse;whiteSpace=wrap;html=1;fontFamily=Times New Roman;fillColor=#d5e8d4;strokeColor=#82b366;" vertex="1" parent="1">
          <mxGeometry x="80" y="558.5" width="90" height="50" as="geometry" />
        </mxCell>
        <mxCell id="0VVeaCW9og5QifVoDG6b-15" style="edgeStyle=orthogonalEdgeStyle;rounded=0;orthogonalLoop=1;jettySize=auto;html=1;exitX=0.5;exitY=0;exitDx=0;exitDy=0;entryX=0.179;entryY=0.989;entryDx=0;entryDy=0;entryPerimeter=0;fontFamily=Times New Roman;" edge="1" parent="1" source="0VVeaCW9og5QifVoDG6b-3" target="0VVeaCW9og5QifVoDG6b-4">
          <mxGeometry relative="1" as="geometry" />
        </mxCell>
        <mxCell id="0VVeaCW9og5QifVoDG6b-3" value="数据理解" style="rounded=0;whiteSpace=wrap;html=1;fontFamily=Times New Roman;fillColor=#0050ef;fontColor=#ffffff;strokeColor=#001DBC;" vertex="1" parent="1">
          <mxGeometry x="240" y="510" width="120" height="40" as="geometry" />
        </mxCell>
        <mxCell id="0VVeaCW9og5QifVoDG6b-16" style="edgeStyle=orthogonalEdgeStyle;rounded=0;orthogonalLoop=1;jettySize=auto;html=1;exitX=0.516;exitY=0.036;exitDx=0;exitDy=0;exitPerimeter=0;fontFamily=Times New Roman;" edge="1" parent="1" source="0VVeaCW9og5QifVoDG6b-4">
          <mxGeometry relative="1" as="geometry">
            <mxPoint x="340" y="445" as="targetPoint" />
            <mxPoint x="340" y="455" as="sourcePoint" />
          </mxGeometry>
        </mxCell>
        <mxCell id="0VVeaCW9og5QifVoDG6b-4" value="数据处理" style="rounded=0;whiteSpace=wrap;html=1;fontFamily=Times New Roman;fillColor=#0050ef;fontColor=#ffffff;strokeColor=#001DBC;" vertex="1" parent="1">
          <mxGeometry x="280" y="460" width="120" height="35" as="geometry" />
        </mxCell>
        <mxCell id="0VVeaCW9og5QifVoDG6b-18" style="edgeStyle=orthogonalEdgeStyle;rounded=0;orthogonalLoop=1;jettySize=auto;html=1;exitX=0.492;exitY=0;exitDx=0;exitDy=0;exitPerimeter=0;fontFamily=Times New Roman;" edge="1" parent="1" source="0VVeaCW9og5QifVoDG6b-5">
          <mxGeometry relative="1" as="geometry">
            <mxPoint x="379" y="395" as="targetPoint" />
            <mxPoint x="379" y="405" as="sourcePoint" />
          </mxGeometry>
        </mxCell>
        <mxCell id="0VVeaCW9og5QifVoDG6b-27" style="edgeStyle=orthogonalEdgeStyle;rounded=0;orthogonalLoop=1;jettySize=auto;html=1;exitX=1;exitY=0.5;exitDx=0;exitDy=0;entryX=1;entryY=0.5;entryDx=0;entryDy=0;fontFamily=Times New Roman;" edge="1" parent="1" source="0VVeaCW9og5QifVoDG6b-5" target="0VVeaCW9og5QifVoDG6b-4">
          <mxGeometry relative="1" as="geometry" />
        </mxCell>
        <mxCell id="0VVeaCW9og5QifVoDG6b-5" value="特征提取" style="rounded=0;whiteSpace=wrap;html=1;fontFamily=Times New Roman;fillColor=#0050ef;fontColor=#ffffff;strokeColor=#001DBC;" vertex="1" parent="1">
          <mxGeometry x="320" y="410" width="120" height="35" as="geometry" />
        </mxCell>
        <mxCell id="0VVeaCW9og5QifVoDG6b-6" value="交付和维护" style="ellipse;whiteSpace=wrap;html=1;fontFamily=Times New Roman;fillColor=#d5e8d4;strokeColor=#82b366;" vertex="1" parent="1">
          <mxGeometry x="690" y="146.5" width="90" height="50" as="geometry" />
        </mxCell>
        <mxCell id="0VVeaCW9og5QifVoDG6b-19" style="edgeStyle=orthogonalEdgeStyle;rounded=0;orthogonalLoop=1;jettySize=auto;html=1;exitX=0.5;exitY=0;exitDx=0;exitDy=0;entryX=0.179;entryY=1.012;entryDx=0;entryDy=0;entryPerimeter=0;fontFamily=Times New Roman;" edge="1" parent="1" source="0VVeaCW9og5QifVoDG6b-7" target="0VVeaCW9og5QifVoDG6b-8">
          <mxGeometry relative="1" as="geometry" />
        </mxCell>
        <mxCell id="0VVeaCW9og5QifVoDG6b-7" value="模型构建" style="rounded=0;whiteSpace=wrap;html=1;fontFamily=Times New Roman;fillColor=#d80073;fontColor=#ffffff;strokeColor=#A50040;" vertex="1" parent="1">
          <mxGeometry x="360" y="360" width="120" height="35" as="geometry" />
        </mxCell>
        <mxCell id="0VVeaCW9og5QifVoDG6b-20" style="edgeStyle=orthogonalEdgeStyle;rounded=0;orthogonalLoop=1;jettySize=auto;html=1;exitX=0.5;exitY=0;exitDx=0;exitDy=0;fontFamily=Times New Roman;" edge="1" parent="1" source="0VVeaCW9og5QifVoDG6b-8">
          <mxGeometry relative="1" as="geometry">
            <mxPoint x="460" y="295" as="targetPoint" />
            <mxPoint x="460" y="305" as="sourcePoint" />
          </mxGeometry>
        </mxCell>
        <mxCell id="0VVeaCW9og5QifVoDG6b-26" style="edgeStyle=orthogonalEdgeStyle;rounded=0;orthogonalLoop=1;jettySize=auto;html=1;exitX=1;exitY=0.5;exitDx=0;exitDy=0;entryX=1;entryY=0.5;entryDx=0;entryDy=0;fontFamily=Times New Roman;" edge="1" parent="1" source="0VVeaCW9og5QifVoDG6b-8" target="0VVeaCW9og5QifVoDG6b-7">
          <mxGeometry relative="1" as="geometry" />
        </mxCell>
        <mxCell id="0VVeaCW9og5QifVoDG6b-8" value="模型评估" style="rounded=0;whiteSpace=wrap;html=1;fontFamily=Times New Roman;fillColor=#d80073;fontColor=#ffffff;strokeColor=#A50040;" vertex="1" parent="1">
          <mxGeometry x="400" y="310" width="120" height="35" as="geometry" />
        </mxCell>
        <mxCell id="0VVeaCW9og5QifVoDG6b-22" style="edgeStyle=orthogonalEdgeStyle;rounded=0;orthogonalLoop=1;jettySize=auto;html=1;exitX=0.501;exitY=-0.039;exitDx=0;exitDy=0;exitPerimeter=0;fontFamily=Times New Roman;" edge="1" parent="1" source="0VVeaCW9og5QifVoDG6b-10">
          <mxGeometry relative="1" as="geometry">
            <mxPoint x="500.027027027027" y="246" as="targetPoint" />
            <mxPoint x="500" y="256" as="sourcePoint" />
          </mxGeometry>
        </mxCell>
        <mxCell id="0VVeaCW9og5QifVoDG6b-25" style="edgeStyle=orthogonalEdgeStyle;rounded=0;orthogonalLoop=1;jettySize=auto;html=1;exitX=1;exitY=0.5;exitDx=0;exitDy=0;entryX=1;entryY=0.5;entryDx=0;entryDy=0;fontFamily=Times New Roman;" edge="1" parent="1" source="0VVeaCW9og5QifVoDG6b-10" target="0VVeaCW9og5QifVoDG6b-3">
          <mxGeometry relative="1" as="geometry" />
        </mxCell>
        <mxCell id="0VVeaCW9og5QifVoDG6b-10" value="模型训练" style="rounded=0;whiteSpace=wrap;html=1;fontFamily=Times New Roman;fillColor=#d80073;fontColor=#ffffff;strokeColor=#A50040;" vertex="1" parent="1">
          <mxGeometry x="440" y="260" width="120" height="35" as="geometry" />
        </mxCell>
        <mxCell id="0VVeaCW9og5QifVoDG6b-23" style="edgeStyle=orthogonalEdgeStyle;rounded=0;orthogonalLoop=1;jettySize=auto;html=1;exitX=0.5;exitY=0;exitDx=0;exitDy=0;entryX=0.152;entryY=1.031;entryDx=0;entryDy=0;entryPerimeter=0;fontFamily=Times New Roman;" edge="1" parent="1" source="0VVeaCW9og5QifVoDG6b-11" target="0VVeaCW9og5QifVoDG6b-12">
          <mxGeometry relative="1" as="geometry">
            <Array as="points">
              <mxPoint x="538" y="210" />
            </Array>
          </mxGeometry>
        </mxCell>
        <mxCell id="0VVeaCW9og5QifVoDG6b-11" value="模型测试" style="rounded=0;whiteSpace=wrap;html=1;fontFamily=Times New Roman;fillColor=#1ba1e2;fontColor=#ffffff;strokeColor=#006EAF;" vertex="1" parent="1">
          <mxGeometry x="480" y="210" width="120" height="35" as="geometry" />
        </mxCell>
        <mxCell id="0VVeaCW9og5QifVoDG6b-24" style="edgeStyle=orthogonalEdgeStyle;rounded=0;orthogonalLoop=1;jettySize=auto;html=1;exitX=1;exitY=0.5;exitDx=0;exitDy=0;entryX=0;entryY=0.5;entryDx=0;entryDy=0;fontFamily=Times New Roman;" edge="1" parent="1" source="0VVeaCW9og5QifVoDG6b-12" target="0VVeaCW9og5QifVoDG6b-6">
          <mxGeometry relative="1" as="geometry" />
        </mxCell>
        <mxCell id="0VVeaCW9og5QifVoDG6b-12" value="模型应用" style="rounded=0;whiteSpace=wrap;html=1;fontFamily=Times New Roman;fillColor=#1ba1e2;fontColor=#ffffff;strokeColor=#006EAF;" vertex="1" parent="1">
          <mxGeometry x="520" y="154" width="120" height="35" as="geometry" />
        </mxCell>
        <mxCell id="0VVeaCW9og5QifVoDG6b-28" value="" style="endArrow=none;dashed=1;html=1;dashPattern=1 3;strokeWidth=2;rounded=0;strokeColor=#0000CC;fontFamily=Times New Roman;" edge="1" parent="1">
          <mxGeometry width="50" height="50" relative="1" as="geometry">
            <mxPoint x="80" y="400" as="sourcePoint" />
            <mxPoint x="800" y="400" as="targetPoint" />
          </mxGeometry>
        </mxCell>
        <mxCell id="0VVeaCW9og5QifVoDG6b-29" value="" style="endArrow=none;dashed=1;html=1;dashPattern=1 3;strokeWidth=2;rounded=0;strokeColor=#0000FF;fontFamily=Times New Roman;" edge="1" parent="1">
          <mxGeometry width="50" height="50" relative="1" as="geometry">
            <mxPoint x="80" y="250" as="sourcePoint" />
            <mxPoint x="810" y="250" as="targetPoint" />
          </mxGeometry>
        </mxCell>
        <mxCell id="0VVeaCW9og5QifVoDG6b-30" value="&lt;font color=&quot;#000000&quot; size=&quot;1&quot; style=&quot;&quot;&gt;&lt;b style=&quot;font-size: 18px;&quot;&gt;1&lt;/b&gt;&lt;/font&gt;" style="ellipse;whiteSpace=wrap;html=1;aspect=fixed;fillColor=#0050ef;strokeColor=#001DBC;fontColor=#ffffff;fontFamily=Times New Roman;" vertex="1" parent="1">
          <mxGeometry x="650" y="445" width="40" height="40" as="geometry" />
        </mxCell>
        <mxCell id="0VVeaCW9og5QifVoDG6b-35" value="&lt;font color=&quot;#000000&quot; size=&quot;1&quot; style=&quot;&quot;&gt;&lt;b style=&quot;font-size: 18px;&quot;&gt;2&lt;/b&gt;&lt;/font&gt;" style="ellipse;whiteSpace=wrap;html=1;aspect=fixed;fillColor=#d80073;strokeColor=#A50040;fontColor=#ffffff;fontFamily=Times New Roman;" vertex="1" parent="1">
          <mxGeometry x="650" y="295" width="40" height="40" as="geometry" />
        </mxCell>
        <mxCell id="0VVeaCW9og5QifVoDG6b-36" value="&lt;font color=&quot;#000000&quot; size=&quot;1&quot; style=&quot;&quot;&gt;&lt;b style=&quot;font-size: 18px;&quot;&gt;3&lt;/b&gt;&lt;/font&gt;" style="ellipse;whiteSpace=wrap;html=1;aspect=fixed;fillColor=#1ba1e2;strokeColor=#006EAF;fontColor=#ffffff;fontFamily=Times New Roman;" vertex="1" parent="1">
          <mxGeometry x="650" y="200" width="40" height="40" as="geometry" />
        </mxCell>
        <mxCell id="0VVeaCW9og5QifVoDG6b-37" value="算法层" style="text;html=1;strokeColor=none;fillColor=none;align=center;verticalAlign=middle;whiteSpace=wrap;rounded=0;fontSize=18;fontColor=#000000;fontFamily=Times New Roman;" vertex="1" parent="1">
          <mxGeometry x="720" y="300" width="70" height="30" as="geometry" />
        </mxCell>
        <mxCell id="0VVeaCW9og5QifVoDG6b-38" value="数据层" style="text;html=1;strokeColor=none;fillColor=none;align=center;verticalAlign=middle;whiteSpace=wrap;rounded=0;fontSize=18;fontColor=#000000;fontFamily=Times New Roman;" vertex="1" parent="1">
          <mxGeometry x="720" y="450" width="80" height="30" as="geometry" />
        </mxCell>
        <mxCell id="0VVeaCW9og5QifVoDG6b-39" value="测试和应用层" style="text;html=1;strokeColor=none;fillColor=none;align=center;verticalAlign=middle;whiteSpace=wrap;rounded=0;fontSize=18;fontColor=#000000;fontFamily=Times New Roman;" vertex="1" parent="1">
          <mxGeometry x="697.5" y="210" width="115" height="30" as="geometry" />
        </mxCell>
        <mxCell id="0VVeaCW9og5QifVoDG6b-40" value="" style="endArrow=none;dashed=1;html=1;dashPattern=1 3;strokeWidth=2;rounded=0;strokeColor=#0000CC;fontFamily=Times New Roman;" edge="1" parent="1">
          <mxGeometry width="50" height="50" relative="1" as="geometry">
            <mxPoint x="80" y="552.5" as="sourcePoint" />
            <mxPoint x="800" y="552.5" as="targetPoint" />
          </mxGeometry>
        </mxCell>
      </root>
    </mxGraphModel>
  </diagram>
</mxfile>
